<?xml version="1.0" encoding="utf-8"?>
<!-- Generator: Adobe Illustrator 27.1.1, SVG Export Plug-In . SVG Version: 6.00 Build 0)  -->
<svg version="1.1" id="Layer_1" xmlns="http://www.w3.org/2000/svg" xmlns:xlink="http://www.w3.org/1999/xlink" x="0px" y="0px"
	 viewBox="0 0 455.04 356.12" style="enable-background:new 0 0 455.04 356.12;" xml:space="preserve">
<g>
	<g>
		<path d="M41.96,153.74c0-7.47,0-13.48-0.16-19.98h5.69l0.32,16.9c4.55-13.32,14.62-18.85,32.65-18.85
			c29.08,0,39.32,10.88,39.32,46.3v4.87c0,35.42-10.24,46.3-40.13,46.3c-16.41,0-25.99-4.87-31.03-16.57c0,15.43,0,31.52,0.16,37.37
			H41.8c0.16-5.36,0.16-14.46,0.16-24.86V153.74z M79.65,222.78c25.34,0,33.14-8.45,33.14-39.8v-4.87c0-31.35-7.8-39.8-32.33-39.8
			c-22.91,0-32,8.45-32,40.45v3.57C48.46,214.34,57.56,222.78,79.65,222.78z"/>
	</g>
	<g>
		<path d="M242.43,182.82v-4.87c0-35.58,10.23-46.14,40.13-46.14c16.41,0,25.99,4.71,31.03,16.25c0-16.57-0.16-35.9-0.33-42.24h7.15
			c-0.16,5.52-0.16,12.35-0.16,20.96v79.77c0,8.45,0,14.62,0.16,20.79h-5.69l-0.16-17.06c-4.71,13.48-14.62,19.01-32.82,19.01
			C252.66,229.28,242.43,218.4,242.43,182.82z M313.75,182.17v-3.57c0-32.17-9.1-40.29-31.19-40.29c-25.34,0-33.14,8.12-33.14,39.64
			v4.87c0,31.52,7.8,39.96,32.33,39.96C304.65,222.78,313.75,214.34,313.75,182.17z"/>
	</g>
	<g>
		<path d="M413.9,227.33h-67.5v-10.12l37.15-48.26c6.47-8.46,14.76-18.74,22.39-28.53v-2.65c-5.97,0.17-17.25,0.17-24.38,0.17
			c-6.63,0-27.86,0-34.5,0.17v-6.3h65.68v10.12l-36.15,46.93c-7.63,9.95-15.42,20.07-23.38,30.02v2.49
			c5.14-0.17,15.76-0.17,22.72-0.17c8.46,0,24.71,0,37.98-0.17V227.33z"/>
	</g>
	<g>
		<polygon points="183.52,226.02 131.4,226.02 131.4,213.99 155.2,177.01 183.64,131.51 229.33,210.65 223.27,214.15 183.4,145.1 
			161.11,180.75 138.4,216.04 138.4,219.02 183.52,219.02 		"/>
	</g>
</g>
</svg>
